<?xml version="1.0" encoding="UTF-8" standalone="no"?>
<!-- Created with Inkscape (http://www.inkscape.org/) -->

<svg
   xmlns:dc="http://purl.org/dc/elements/1.1/"
   xmlns:cc="http://creativecommons.org/ns#"
   xmlns:rdf="http://www.w3.org/1999/02/22-rdf-syntax-ns#"
   xmlns:svg="http://www.w3.org/2000/svg"
   xmlns="http://www.w3.org/2000/svg"
   xmlns:sodipodi="http://sodipodi.sourceforge.net/DTD/sodipodi-0.dtd"
   xmlns:inkscape="http://www.inkscape.org/namespaces/inkscape"
   width="32"
   height="32"
   id="svg11374"
   version="1.1"
   inkscape:version="0.48.1 r9760"
   sodipodi:docname="left_foot_bumper_right.svg">
  <defs
     id="defs11376" />
  <sodipodi:namedview
     id="base"
     pagecolor="#ffffff"
     bordercolor="#666666"
     borderopacity="1.0"
     inkscape:pageopacity="0.0"
     inkscape:pageshadow="2"
     inkscape:zoom="20.619135"
     inkscape:cx="16.050355"
     inkscape:cy="15.181685"
     inkscape:document-units="px"
     inkscape:current-layer="layer1"
     showgrid="false"
     fit-margin-top="0"
     fit-margin-left="0"
     fit-margin-right="0"
     fit-margin-bottom="0"
     inkscape:window-width="1400"
     inkscape:window-height="1002"
     inkscape:window-x="0"
     inkscape:window-y="26"
     inkscape:window-maximized="1" />
  <metadata
     id="metadata11379">
    <rdf:RDF>
      <cc:Work
         rdf:about="">
        <dc:format>image/svg+xml</dc:format>
        <dc:type
           rdf:resource="http://purl.org/dc/dcmitype/StillImage" />
        <dc:title></dc:title>
      </cc:Work>
    </rdf:RDF>
  </metadata>
  <g
     inkscape:label="Ebene 1"
     inkscape:groupmode="layer"
     id="layer1"
     transform="translate(-414.73647,-431.6296)">
    <path
       style="opacity:0.19039995;fill:#fffafa;fill-opacity:1;stroke:#ffffff;stroke-width:0.051;stroke-miterlimit:4;stroke-opacity:1;stroke-dasharray:none"
       d="m 431.8644,463.51682 c 1.80333,-0.20557 2.83669,-0.60107 3.8588,-1.4769 0.55894,-0.47894 1.41008,-1.59037 1.86426,-2.43438 0.15924,-0.29591 0.16345,-0.31948 0.13632,-0.76334 -0.0154,-0.2519 -0.0644,-0.75571 -0.10889,-1.11957 -0.11196,-0.91555 -0.1578,-3.99449 -0.0811,-5.44517 0.0326,-0.61576 0.13974,-2.15008 0.23815,-3.40959 0.0984,-1.25951 0.21039,-2.71368 0.24884,-3.23148 0.041,-0.55249 0.12222,-1.18324 0.19654,-1.52668 0.72495,-3.35019 0.53941,-6.30927 -0.53592,-8.54719 -0.22795,-0.47438 -0.30911,-0.58553 -0.74807,-1.0245 -1.2271,-1.2271 -2.72981,-1.82553 -4.58806,-1.82712 -1.23464,-10e-4 -2.59247,0.19291 -3.56273,0.50896 -0.95001,0.30944 -2.03967,0.90051 -2.82134,1.53038 -1.28155,1.03268 -2.31021,2.66445 -2.69383,4.27329 -0.18289,0.76699 -0.23231,1.26953 -0.23231,2.3623 l 0,0.96827 0.40868,1.42487 c 0.48612,1.69484 0.91023,3.36255 1.08708,4.27467 0.28039,1.44613 0.30542,1.72928 0.3082,3.48593 0.002,1.54714 -0.005,1.68427 -0.11193,2.12428 -0.25207,1.03513 -0.73512,2.00961 -1.54303,3.1128 -0.80428,1.09822 -0.91234,1.27144 -0.91234,1.46244 0,0.39253 0.35572,0.93845 1.32231,2.02936 1.44466,1.63047 3.22161,2.71026 5.09756,3.09762 0.73324,0.15141 2.45102,0.23302 3.17278,0.15075 l 0,0 z"
       id="path11980"
       inkscape:connector-curvature="0" />
    <path
       style="fill:none;stroke:#000000;stroke-width:0.77499002;stroke-linecap:butt;stroke-linejoin:miter;stroke-miterlimit:4;stroke-opacity:1;stroke-dasharray:none"
       d="m 438.12889,445.03088 c 0.74104,-3.26513 0.84423,-6.28726 -0.30041,-8.83405 -0.11156,-0.24823 -0.20234,-0.45207 -0.37082,-0.73094 -0.20692,-0.298 -0.4189,-0.52256 -0.66015,-0.74278 -1.23749,-1.12964 -2.80106,-1.8192 -4.96137,-1.69042 -2.19589,0.032 -4.31998,0.60231 -6.29278,2.30735 -2.74288,2.69156 -2.66992,5.57079 -2.55904,7.3835 1.23007,4.19102 1.82629,6.52574 1.72002,8.60011 0.21856,2.34326 -0.73209,3.79641 -1.76847,5.15627 -0.29854,0.39171 -0.71358,0.84976 -0.70678,1.29214 0.0247,0.52583 0.36694,0.98426 0.62949,1.32534 3.14016,4.07912 6.31058,4.10296 7.76096,4.14054 4.50287,0.11665 5.87032,-2.12341 6.91898,-3.81834 0.13279,-0.21461 0.268,-0.46812 0.29671,-0.7544 0.0254,-0.37594 -0.0691,-0.67863 -0.10953,-1.03638 -0.49134,-4.33619 0.198,-8.98671 0.40319,-12.59794 z"
       id="path11448"
       inkscape:connector-curvature="0"
       sodipodi:nodetypes="cscsccccscssscsc" />
    <path
       style="fill:none;stroke:#800000;stroke-width:2;stroke-linecap:butt;stroke-linejoin:miter;stroke-miterlimit:4;stroke-opacity:1;stroke-dasharray:none"
       d="m 437.85763,436.17491 c -0.11156,-0.24823 -0.20234,-0.45207 -0.37082,-0.73094 -0.20692,-0.298 -0.4189,-0.52256 -0.66015,-0.74278 -1.23749,-1.12964 -2.80106,-1.8192 -4.96137,-1.69042 -2.19589,0.032 -4.31998,0.60231 -6.29279,2.30735"
       id="path11448-2"
       inkscape:connector-curvature="0"
       sodipodi:nodetypes="ccscc" />
  </g>
</svg>
