<?xml version="1.0" encoding="UTF-8" standalone="no"?>
<!-- Created with Inkscape (http://www.inkscape.org/) -->

<svg
   xmlns:dc="http://purl.org/dc/elements/1.1/"
   xmlns:cc="http://creativecommons.org/ns#"
   xmlns:rdf="http://www.w3.org/1999/02/22-rdf-syntax-ns#"
   xmlns:svg="http://www.w3.org/2000/svg"
   xmlns="http://www.w3.org/2000/svg"
   xmlns:sodipodi="http://sodipodi.sourceforge.net/DTD/sodipodi-0.dtd"
   xmlns:inkscape="http://www.inkscape.org/namespaces/inkscape"
   width="130.77216mm"
   height="31.999998mm"
   viewBox="0 0 130.77216 31.999998"
   version="1.1"
   id="svg8"
   inkscape:version="0.92.3 (2405546, 2018-03-11)"
   sodipodi:docname="fawkes-logo.svg">
  <defs
     id="defs2" />
  <sodipodi:namedview
     id="base"
     pagecolor="#ffffff"
     bordercolor="#666666"
     borderopacity="1.0"
     inkscape:pageopacity="0.0"
     inkscape:pageshadow="2"
     inkscape:zoom="1.03"
     inkscape:cx="193.5391"
     inkscape:cy="-2.6381785"
     inkscape:document-units="mm"
     inkscape:current-layer="layer1"
     showgrid="false"
     fit-margin-top="0"
     fit-margin-left="0"
     fit-margin-right="0"
     fit-margin-bottom="0"
     inkscape:window-width="1920"
     inkscape:window-height="1016"
     inkscape:window-x="0"
     inkscape:window-y="27"
     inkscape:window-maximized="1"
     inkscape:pagecheckerboard="true" />
  <metadata
     id="metadata5">
    <rdf:RDF>
      <cc:Work
         rdf:about="">
        <dc:format>image/svg+xml</dc:format>
        <dc:type
           rdf:resource="http://purl.org/dc/dcmitype/StillImage" />
        <dc:title></dc:title>
      </cc:Work>
    </rdf:RDF>
  </metadata>
  <g
     inkscape:label="Layer 1"
     inkscape:groupmode="layer"
     id="layer1"
     transform="translate(-42.180931,-36.505226)">
    <g
       aria-label="Fawkes"
       style="font-style:normal;font-variant:normal;font-weight:normal;font-stretch:normal;font-size:11.25175762px;line-height:25.2695713px;font-family:ATRotisSemiSerif;-inkscape-font-specification:ATRotisSemiSerif;letter-spacing:0px;word-spacing:0px;opacity:0.95999995;fill:#ffffff;fill-opacity:1;stroke:none;stroke-width:0.23441161px;stroke-linecap:butt;stroke-linejoin:miter;stroke-opacity:1"
       id="text817">
      <path
         d="m 46.726641,42.446154 q 0,-2.025317 -0.810126,-2.790436 -0.810127,-0.76512 -3.735584,-1.170183 V 37.720416 H 63.42425 l 0.225035,5.490857 H 62.254067 Q 61.758989,40.555858 60.903856,40.015774 60.093729,39.47569 58.11342,39.47569 h -4.725738 q -1.890295,0 -2.340366,0.540084 -0.405063,0.495077 -0.405063,2.43038 v 8.866385 h 5.715893 q 1.980309,0 2.970464,-0.630099 1.035162,-0.630098 1.440225,-3.105485 h 1.035162 v 9.316456 h -1.035162 q -0.405063,-2.340366 -1.080169,-3.060479 -0.675105,-0.765119 -3.33052,-0.765119 h -5.715893 v 14.942334 h -3.915612 z"
         style="font-size:45.00703049px;fill:#ffffff;stroke-width:0.23441161px"
         id="path885" />
      <path
         d="m 78.769537,65.129697 q -1.21519,1.395218 -2.700422,2.385373 -1.440225,0.990154 -3.690576,0.990154 -2.43038,0 -3.915612,-1.485232 -1.485232,-1.485232 -1.485232,-3.825597 0,-4.140647 3.78059,-5.400844 3.780591,-1.305204 8.011252,-1.305204 v -1.755274 q 0,-3.195499 -0.630099,-4.770745 -0.630098,-1.620253 -3.150492,-1.620253 -1.710267,0 -2.745429,1.035161 -0.990154,0.990155 -0.990154,2.925457 h -4.005626 q 0,-2.340365 1.845288,-4.005625 1.890296,-1.710267 6.030942,-1.710267 4.140647,0 5.625879,1.890295 1.485232,1.890295 1.485232,5.445851 v 14.0872 h -3.465541 z m 0,-7.246132 q -2.790436,0 -5.400844,0.945148 -2.5654,0.90014 -2.5654,3.78059 0,1.395218 0.855133,2.565401 0.855134,1.125176 2.565401,1.125176 2.070323,0 3.285513,-1.845288 1.260197,-1.890296 1.260197,-3.915612 z"
         style="font-size:45.00703049px;fill:#ffffff;stroke-width:0.23441161px"
         id="path887" />
      <path
         d="m 89.251252,51.672595 q -0.540084,-1.800281 -1.035162,-2.610408 -0.495077,-0.855133 -2.790436,-1.21519 v -0.765119 h 5.805907 l 4.590717,15.977496 4.905762,-15.977496 h 2.47539 l 5.26582,16.112517 4.23066,-16.112517 h 2.29536 l -5.58087,21.423346 h -2.20534 l -5.58087,-16.96765 -5.355841,16.96765 h -2.160338 z"
         style="font-size:45.00703049px;fill:#ffffff;stroke-width:0.23441161px"
         id="path889" />
      <path
         d="m 120.28571,41.230964 q 0,-1.800281 -1.03516,-2.385373 -1.03516,-0.585091 -2.47539,-0.585091 v -0.76512 l 6.97609,-0.990154 v 19.39803 l 8.46132,-8.821378 h 3.06048 l -8.3263,8.686357 9.85654,12.241912 h -4.18565 l -8.77637,-10.981715 -0.09,10.981715 h -3.46554 z"
         style="font-size:45.00703049px;fill:#ffffff;stroke-width:0.23441161px"
         id="path891" />
      <path
         d="m 155.38627,67.695098 q -0.6301,0.270042 -2.20535,0.540084 -1.53024,0.270042 -3.37552,0.270042 -5.04079,0 -7.78622,-2.970464 -2.70042,-3.015471 -2.70042,-8.641349 0,-5.085795 2.11533,-7.696203 2.16034,-2.610407 6.93108,-2.610407 3.33052,0 5.44585,1.980309 2.11533,1.980309 2.11533,5.850914 v 0.675105 H 142.7843 v 0.945148 q 0,3.780591 2.52039,7.246132 2.5654,3.465541 6.88608,3.465541 0.6301,0 1.3052,-0.09001 0.67511,-0.135021 1.8903,-0.45007 z m -3.37553,-14.537271 q 0,-1.980309 -1.17018,-3.375527 -1.12518,-1.440225 -3.06048,-1.440225 -2.65541,0 -3.73558,1.66526 -1.03517,1.620253 -1.21519,3.555555 h 9.18143 z"
         style="font-size:45.00703049px;fill:#ffffff;stroke-width:0.23441161px"
         id="path893" />
      <path
         d="m 171.55786,50.052342 q -1.80028,-0.900141 -2.83544,-1.305204 -0.99016,-0.405063 -2.61041,-0.405063 -1.62025,0 -2.70042,0.675105 -1.03516,0.675106 -1.03516,2.205345 0,1.800281 2.61041,3.195499 2.65541,1.350211 5.22081,2.655415 2.74543,1.935302 2.74543,4.99578 0,3.240506 -2.16034,4.860759 -2.16034,1.575246 -5.85091,1.575246 -1.8903,0 -3.24051,-0.270042 -1.35021,-0.225035 -2.5654,-0.630098 v -2.835443 q 1.03516,0.540084 2.11533,1.080169 2.11533,0.90014 3.87061,0.90014 2.20534,0 3.42053,-0.90014 1.2602,-0.900141 1.2602,-2.925457 0,-1.845289 -2.74543,-3.420535 -2.5654,-1.350211 -5.0858,-2.700421 -2.74542,-1.845289 -2.74542,-4.320675 0,-2.745429 1.75527,-4.320675 1.80028,-1.575246 5.58087,-1.575246 1.39522,0 2.25035,0.180028 0.90014,0.135021 2.74543,0.585091 z"
         style="font-size:45.00703049px;fill:#ffffff;stroke-width:0.23441161px"
         id="path895" />
    </g>
  </g>
</svg>
