<?xml version="1.0" encoding="UTF-8" standalone="no"?>
<!-- Created with Inkscape (http://www.inkscape.org/) -->
<svg
   xmlns:dc="http://purl.org/dc/elements/1.1/"
   xmlns:cc="http://web.resource.org/cc/"
   xmlns:rdf="http://www.w3.org/1999/02/22-rdf-syntax-ns#"
   xmlns:svg="http://www.w3.org/2000/svg"
   xmlns="http://www.w3.org/2000/svg"
   xmlns:xlink="http://www.w3.org/1999/xlink"
   xmlns:sodipodi="http://sodipodi.sourceforge.net/DTD/sodipodi-0.dtd"
   xmlns:inkscape="http://www.inkscape.org/namespaces/inkscape"
   width="329.15387"
   height="798.29602"
   id="svg2"
   inkscape:label="Pozadí"
   sodipodi:version="0.32"
   inkscape:version="0.44.1"
   sodipodi:docbase="D:\_petr_\School\INKSCAPE\svg\07.Rostliny"
   sodipodi:docname="tulipan.svg"
   version="1.0">
  <defs
     id="defs3073">
    <linearGradient
       inkscape:collect="always"
       id="linearGradient4993">
      <stop
         style="stop-color:lime;stop-opacity:1;"
         offset="0"
         id="stop4995" />
      <stop
         style="stop-color:lime;stop-opacity:0;"
         offset="1"
         id="stop4997" />
    </linearGradient>
    <linearGradient
       inkscape:collect="always"
       id="linearGradient4047">
      <stop
         style="stop-color:red;stop-opacity:1;"
         offset="0"
         id="stop4049" />
      <stop
         style="stop-color:red;stop-opacity:0;"
         offset="1"
         id="stop4051" />
    </linearGradient>
    <linearGradient
       inkscape:collect="always"
       xlink:href="#linearGradient4047"
       id="linearGradient4960"
       gradientUnits="userSpaceOnUse"
       x1="534.28571"
       y1="400.93362"
       x2="659.99994"
       y2="796.98364"
       gradientTransform="translate(-70,-108.5714)" />
    <linearGradient
       inkscape:collect="always"
       xlink:href="#linearGradient4047"
       id="linearGradient4975"
       gradientUnits="userSpaceOnUse"
       gradientTransform="translate(-85.71429,-124.2857)"
       x1="534.28571"
       y1="400.93362"
       x2="659.99994"
       y2="796.98364" />
    <linearGradient
       inkscape:collect="always"
       xlink:href="#linearGradient4047"
       id="linearGradient4978"
       gradientUnits="userSpaceOnUse"
       gradientTransform="translate(-85.71429,-124.2857)"
       x1="534.28571"
       y1="400.93362"
       x2="659.99994"
       y2="796.98364" />
    <linearGradient
       inkscape:collect="always"
       xlink:href="#linearGradient4047"
       id="linearGradient4981"
       gradientUnits="userSpaceOnUse"
       gradientTransform="translate(-85.71429,-124.2857)"
       x1="534.28571"
       y1="400.93362"
       x2="659.99994"
       y2="796.98364" />
    <linearGradient
       inkscape:collect="always"
       xlink:href="#linearGradient4993"
       id="linearGradient4999"
       x1="74.285728"
       y1="886.64795"
       x2="908.57141"
       y2="726.64789"
       gradientUnits="userSpaceOnUse"
       gradientTransform="translate(12.12183,-0.631345)" />
  </defs>
  <sodipodi:namedview
     id="base"
     pagecolor="#ffffff"
     bordercolor="#666666"
     borderopacity="1.0"
     inkscape:pageopacity="0.0"
     inkscape:pageshadow="2"
     inkscape:zoom="0.49497475"
     inkscape:cx="375"
     inkscape:cy="542.70078"
     inkscape:document-units="px"
     inkscape:current-layer="layer1"
     inkscape:window-width="1024"
     inkscape:window-height="712"
     inkscape:window-x="0"
     inkscape:window-y="0" />
  <metadata
     id="metadata3076">
    <rdf:RDF>
      <cc:Work
         rdf:about="">
        <dc:format>image/svg+xml</dc:format>
        <dc:type
           rdf:resource="http://purl.org/dc/dcmitype/StillImage" />
        <dc:title>tulipan</dc:title>
        <dc:creator>
          <cc:Agent>
            <dc:title>Bauerova Marketa</dc:title>
          </cc:Agent>
        </dc:creator>
        <dc:publisher>
          <cc:Agent>
            <dc:title>ZS a MS Machovo nam.</dc:title>
          </cc:Agent>
        </dc:publisher>
        <dc:language>cz</dc:language>
        <dc:subject>
          <rdf:Bag>
            <rdf:li>tulipan</rdf:li>
            <rdf:li>tulip</rdf:li>
          </rdf:Bag>
        </dc:subject>
        <cc:license
           rdf:resource="http://web.resource.org/cc/PublicDomain" />
      </cc:Work>
      <cc:License
         rdf:about="http://web.resource.org/cc/PublicDomain">
        <cc:permits
           rdf:resource="http://web.resource.org/cc/Reproduction" />
        <cc:permits
           rdf:resource="http://web.resource.org/cc/Distribution" />
        <cc:permits
           rdf:resource="http://web.resource.org/cc/DerivativeWorks" />
      </cc:License>
    </rdf:RDF>
  </metadata>
  <g
     inkscape:label="Vrstva 1"
     inkscape:groupmode="layer"
     id="layer1"
     transform="translate(-209.8527,-196.2368)">
    <g
       id="g5886"
       inkscape:export-xdpi="90"
       inkscape:export-ydpi="90"
       inkscape:export-filename="/media/KINGSTON/inkscape/8.b/Bauerova Marketa/inkscape ja/tulipan.png">
      <path
         sodipodi:nodetypes="cssssc"
         id="path4055"
         d="M -469.56254,485.21933 C -478.3241,489.44823 -488.49372,494.83723 -514.51139,498.59344 C -522.00091,499.67472 -530.40994,498.20116 -539.12116,498.61916 C -575.92571,500.38519 -606.06585,496.6261 -607.58028,485.21933 C -608.72828,476.57256 -576.66431,469.50504 -538.57141,469.50504 C -500.47851,469.50504 -469.56254,476.54504 -469.56254,485.21933 z "
         style="fill:yellow;stroke:black;stroke-opacity:0.00540538"
         transform="matrix(1.299287,0,0,2.160329,1093.33,-481.5854)" />
      <path
         sodipodi:nodetypes="csscsssccsssccccccccsccccccsccccccsccccccsscccccccsscccsscsscc"
         d="M 378.21307,619.19026 C 378.18951,628.19809 379.05185,663.51313 379.02262,658.95601 C 379.01519,657.79671 379.54055,653.82087 379.28595,646.45237 C 378.99885,638.14297 377.73304,626.41593 377.59923,607.53706 C 378.1038,608.83037 376.97594,609.38643 377.76809,606.52804 C 378.47133,603.99047 375.66584,598.85443 376.08434,597.64034 C 377.01146,594.95073 386.35028,594.86072 393.61101,594.80468 C 404.93738,594.71627 414.25341,588.28962 416.16701,602.14289 C 416.68529,607.6292 416.56316,613.14519 416.63559,618.64755 C 416.63849,624.40451 416.62652,630.16148 416.61858,635.91843 C 416.61199,641.63903 416.61194,647.35963 416.61068,653.08023 C 416.6102,658.79424 416.61043,664.50826 416.61045,670.22228 C 416.61053,675.93645 416.61053,681.65062 416.61056,687.36479 C 417.23603,693.49852 415.75821,699.38182 414.88283,705.36075 C 413.59251,710.23255 410.75105,714.38101 408.37062,718.7363 C 406.76591,722.92398 407.73041,728.29192 404.84726,731.47427 C 400.89702,734.82658 396.7409,737.91448 395.15127,742.35647 C 394.37021,748.23312 393.76099,752.74093 393.69152,758.65376 C 393.6999,764.41539 393.72169,770.17699 393.73869,775.93859 C 393.75214,781.65285 393.75055,787.36713 393.75346,793.0814 C 393.75417,798.79495 393.75375,804.50849 393.75366,810.22204 C 393.75349,815.93628 393.75349,821.65052 393.75344,827.36476 C 393.77811,833.35941 393.73433,839.35357 393.70082,845.34797 C 393.70743,852.11597 393.70389,858.8838 393.68464,865.65173 C 393.71038,871.91404 393.72693,878.17636 393.7432,884.4387 C 393.69863,890.88015 393.70467,897.32157 393.71489,903.76326 C 393.73678,909.7254 393.74222,915.68758 393.74996,921.64975 C 393.75431,927.36814 393.75326,933.08654 393.75381,938.80494 C 393.75371,944.51561 393.75361,950.22628 393.7535,955.93696 C 393.16567,961.0753 394.16185,966.22179 394.60476,971.1793 C 394.95713,971.24941 395.3095,971.31952 395.66186,971.38964 L 359.87793,994.03285 C 359.13987,993.2886 358.40182,992.54435 357.66377,991.8001 C 356.94042,986.33885 355.25742,980.83541 356.20445,975.06916 C 356.20434,969.35859 356.20424,963.64802 356.20415,957.93745 C 356.20469,952.21774 356.20365,946.49803 356.208,940.77833 C 356.21574,934.80425 356.2212,928.83016 356.24306,922.85611 C 356.25325,916.42403 356.25941,909.99224 356.21475,903.5604 C 356.23103,897.27817 356.24759,890.99595 356.27331,884.71376 C 356.25402,877.95132 356.25057,871.18899 356.25712,864.42648 C 356.22353,858.44995 356.17979,852.47366 356.20454,846.49686 C 356.20457,840.7826 356.20458,835.06835 356.20469,829.35409 C 356.20477,823.64081 356.20505,817.92753 356.20464,812.21425 C 356.20272,806.50215 356.20396,800.79004 356.19463,795.07794 C 356.1823,789.30814 356.16754,783.53834 356.15725,777.76853 C 356.2003,771.68979 356.12897,765.60065 356.65538,759.53775 C 357.44382,754.34671 357.38586,749.33768 361.33364,745.40354 C 364.18675,742.43905 366.72428,738.92919 369.86299,736.13728 C 372.21059,731.91167 374.79318,727.82357 376.66383,723.33975 C 377.97622,717.80093 379.96282,712.3987 379.06166,706.49692 C 379.06163,700.78277 379.06163,695.06861 379.06154,689.35446 C 379.0615,683.64025 379.06126,677.92604 379.06168,672.21183 C 379.06292,666.48939 379.0628,660.76695 379.06994,655.04451 C 379.07916,649.29232 379.09138,643.54012 379.09439,637.78792 C 379.03304,632.46008 377.11132,603.74135 376.66266,598.42575 C 378.95518,596.92666 385.12854,596.75453 396.10604,594.8992 C 400.96264,594.07837 408.00636,593.00119 413.1134,594.49575 C 415.11003,595.08006 414.9567,594.82887 414.90896,597.4809 C 413.926,596.54351 413.39348,595.53688 411.9685,594.94938 C 408.76501,593.62864 404.76844,593.81837 402.02192,594.03746 C 397.60973,594.38942 366.62411,596.69904 377.13473,599.55575 L 378.21307,619.19026 z "
         id="path4991"
         style="fill:url(#linearGradient4999);fill-opacity:1;stroke:#3f6028;stroke-opacity:0.97837836" />
      <g
         id="g4984">
        <path
           sodipodi:nodetypes="csssssc"
           id="path4035"
           d="M 481.455,355.5551 C 481.455,435.61941 489.80205,508.83741 408.17408,535.28221 C 393.09936,540.16591 386.60229,547.84601 374.28458,538.63741 C 292.65216,477.61001 300.65266,458.52781 281.40354,353.01229 C 263.93248,257.24326 246.9261,241.12863 362.85306,202.98648 C 380.96851,197.02616 383.36778,193.53774 399.65751,200.76693 C 489.40169,240.5943 498.60226,249.75 481.455,355.5551 z "
           style="fill:url(#linearGradient4960);fill-opacity:1;stroke:#080509;stroke-width:0.94351077;stroke-opacity:1" />
        <path
           sodipodi:nodetypes="csssssc"
           id="path4039"
           d="M 422.88356,434.63613 C 422.88356,514.70046 458.37347,594.79897 376.7455,595.86846 C 361.67078,596.06596 328.03085,597.44064 315.71314,584.40292 C 234.08072,497.99878 242.08122,481.40372 222.8321,369.90427 C 205.36104,268.70409 188.35466,247.30277 304.28162,245.19829 C 322.39707,244.86943 324.79634,242.12686 341.08607,254.41996 C 430.83025,322.14568 440.03082,334.16152 422.88356,434.63613 z "
           style="fill:url(#linearGradient4981);fill-opacity:1;stroke:#080509;stroke-width:0.94351077;stroke-opacity:1"
           inkscape:transform-center-x="82.857143"
           inkscape:transform-center-y="22.857143" />
        <path
           style="fill:url(#linearGradient4978);fill-opacity:1;stroke:#080509;stroke-width:0.75302762;stroke-opacity:1"
           d="M 534.12281,365.54725 C 534.12281,445.65563 536.57967,546.05677 484.6126,572.51611 C 475.01554,577.4025 433.73643,597.94397 418.75171,597.30173 C 338.64223,593.86826 406.16091,485.71952 393.90628,380.1459 C 382.78362,284.32418 384.81394,251.05783 458.61688,212.89469 C 470.14978,206.93109 471.67723,203.44075 482.04781,210.67392 C 539.18193,250.5232 545.03932,259.68394 534.12281,365.54725 z "
           id="path3138"
           sodipodi:nodetypes="csssssc" />
        <path
           style="fill:url(#linearGradient4975);fill-opacity:1;stroke:#080509;stroke-width:0.94351077;stroke-opacity:1"
           d="M 497.16928,396.98366 C 497.16928,477.04799 522.65919,565.98027 441.03122,592.42506 C 436.51125,593.88938 428.52417,592.82008 419.22343,593.35734 C 397.50493,594.61191 368.62326,595.08493 359.99886,588.63744 C 278.36644,527.60999 316.36694,499.95642 297.11782,394.44085 C 279.64676,298.67182 262.64038,282.55719 378.56734,244.41504 C 396.68279,238.45472 399.08206,234.9663 415.37179,242.19549 C 505.11597,282.02286 514.31654,291.17856 497.16928,396.98366 z "
           id="path4037"
           sodipodi:nodetypes="cssssssc" />
      </g>
    </g>
  </g>
</svg>
