<?xml version="1.0" encoding="UTF-8" standalone="no"?>
<!-- Created with Inkscape (http://www.inkscape.org/) -->
<svg
   xmlns:dc="http://purl.org/dc/elements/1.1/"
   xmlns:cc="http://creativecommons.org/ns#"
   xmlns:rdf="http://www.w3.org/1999/02/22-rdf-syntax-ns#"
   xmlns:svg="http://www.w3.org/2000/svg"
   xmlns="http://www.w3.org/2000/svg"
   xmlns:xlink="http://www.w3.org/1999/xlink"
   xmlns:sodipodi="http://sodipodi.sourceforge.net/DTD/sodipodi-0.dtd"
   xmlns:inkscape="http://www.inkscape.org/namespaces/inkscape"
   version="1.0"
   width="195.94641"
   height="642.92816"
   id="svg2461"
   sodipodi:version="0.32"
   inkscape:version="0.46"
   sodipodi:docname="human_emph_legs.svg"
   inkscape:output_extension="org.inkscape.output.svg.inkscape">
  <metadata
     id="metadata12">
    <rdf:RDF>
      <cc:Work
         rdf:about="">
        <dc:format>image/svg+xml</dc:format>
        <dc:type
           rdf:resource="http://purl.org/dc/dcmitype/StillImage" />
      </cc:Work>
    </rdf:RDF>
  </metadata>
  <sodipodi:namedview
     inkscape:window-height="992"
     inkscape:window-width="1394"
     inkscape:pageshadow="2"
     inkscape:pageopacity="0.0"
     guidetolerance="10.0"
     gridtolerance="10.0"
     objecttolerance="10.0"
     borderopacity="1.0"
     bordercolor="#666666"
     pagecolor="#ffffff"
     id="base"
     showgrid="false"
     inkscape:zoom="1.42"
     inkscape:cx="-50.211268"
     inkscape:cy="309.02926"
     inkscape:window-x="0"
     inkscape:window-y="26"
     inkscape:current-layer="g3250" />
  <defs
     id="defs2463">
    <inkscape:perspective
       sodipodi:type="inkscape:persp3d"
       inkscape:vp_x="0 : 324 : 1"
       inkscape:vp_y="0 : 1000 : 0"
       inkscape:vp_z="270 : 324 : 1"
       inkscape:persp3d-origin="135 : 216 : 1"
       id="perspective14" />
  </defs>
  <g
     id="g3250"
     transform="translate(350.4732,-11.5)">
    <path
       style="fill:none;stroke:#000000;stroke-width:4.00000010000000028;stroke-linecap:round;stroke-linejoin:miter;stroke-opacity:1;stroke-miterlimit:0.60000001999999997;stroke-dasharray:none"
       d="M -196,356 C -196.48135,401.25227 -181.18406,405.74136 -200.98214,505.33333 C -195.1989,518.05543 -195.07947,540.70799 -197.58446,554.05977 C -201.46321,574.73379 -212.13666,601.67169 -214.31548,617.33333 C -209.2304,631.86213 -186.92695,654.05977 -199.27643,653.33333 C -199.27643,653.33333 -231.33941,654.6717 -235.64881,653.33333 C -239.20635,652.22847 -233.32718,639.73042 -234.15124,617.74335 C -234.77258,601.16539 -240.72792,578.06991 -240.81721,555.77373 C -240.86821,542.21436 -242.13052,534.04502 -235.86293,505.77115 C -252.24816,433.72172 -252,382.35609 -252,382.35609"
       id="path3168" />
    <path
       style="fill:none;stroke:#000000;stroke-width:1;stroke-linecap:square;stroke-linejoin:miter;stroke-opacity:1;stroke-miterlimit:0.60000002;stroke-dasharray:none"
       d="M -252,12 L -252,12 C -241.63864,12.545335 -216.80116,9.0340222 -229.33333,76 C -241.76971,142.45414 -167.91362,94.442798 -156.27329,142.25797 C -152.44159,157.99749 -158.66667,184 -158.66667,184 C -158.66667,184 -153.85116,205.9938 -156,225.33333 C -156.79012,232.44444 -167.51107,260.98851 -166.81481,268.2963 C -166.29721,273.72902 -161.59251,293.54825 -161.72839,307.55556 C -161.84198,319.26483 -165.69926,342.68687 -166.08139,351.5775 C -166.30579,356.79834 -160.89161,389.20731 -161.58025,395.20988 C -162.08085,399.57343 -175.77405,422.96594 -178.12345,421.08642 C -180.09876,419.50617 -171.06173,395.16049 -170.66667,392 C -170.17666,388.07989 -175.41321,374.57035 -177.33333,374.66667 C -180.53755,374.80489 -177.09424,399.6322 -180,399.6322 C -182.54254,399.6322 -189.21379,384.23451 -189.21379,377.33333 C -189.21379,371.52181 -183.74686,356.93434 -184,348 C -184.4424,332.38577 -193.7125,312.94672 -194.1839,297.33333 C -194.46571,287.99949 -192.42909,275.61173 -192.84599,266.30345 C -193.43691,253.10969 -198.66667,222.66667 -198.66667,222.66667 C -198.66667,222.66667 -206.29351,254.1949 -206.66667,268 C -207.38524,294.58352 -195.71714,329.40827 -196,356"
       id="path2470" />
    <path
       d="M -199.48452,225.32174 C -197.9727,225.32174 -191.09047,169.72768 -199.48452,169.72768"
       id="path2474"
       style="fill:none;stroke:#000000;stroke-width:1px;stroke-linecap:butt;stroke-linejoin:miter;stroke-opacity:1" />
    <path
       d="M -252.02544,107.39149 C -242.99468,107.22255 -232.87299,92.310362 -229.97883,79.803755"
       id="path3258"
       style="fill:none;stroke:#000000;stroke-width:1px;stroke-linecap:square;stroke-linejoin:miter;stroke-opacity:1" />
  </g>
  <use
     transform="matrix(-1,0,0,1,195.9464,0)"
     id="use3256"
     x="0"
     y="0"
     width="270"
     height="648"
     xlink:href="#g3250" />
</svg>
