<?xml version="1.0" encoding="UTF-8" standalone="no"?>
<!-- Created with Inkscape (http://www.inkscape.org/) -->
<svg
   xmlns:dc="http://purl.org/dc/elements/1.1/"
   xmlns:cc="http://creativecommons.org/ns#"
   xmlns:rdf="http://www.w3.org/1999/02/22-rdf-syntax-ns#"
   xmlns:svg="http://www.w3.org/2000/svg"
   xmlns="http://www.w3.org/2000/svg"
   xmlns:sodipodi="http://sodipodi.sourceforge.net/DTD/sodipodi-0.dtd"
   xmlns:inkscape="http://www.inkscape.org/namespaces/inkscape"
   width="48px"
   height="48px"
   id="svg2383"
   sodipodi:version="0.32"
   inkscape:version="0.46"
   sodipodi:docname="points_lowres.svg"
   inkscape:output_extension="org.inkscape.output.svg.inkscape">
  <defs
     id="defs2385">
    <marker
       inkscape:stockid="TriangleOutM"
       orient="auto"
       refY="0.0"
       refX="0.0"
       id="TriangleOutM"
       style="overflow:visible">
      <path
         id="path4112"
         d="M 5.77,0.0 L -2.88,5.0 L -2.88,-5.0 L 5.77,0.0 z "
         style="fill-rule:evenodd;stroke:#000000;stroke-width:1.0pt;marker-start:none"
         transform="scale(0.4)" />
    </marker>
    <marker
       inkscape:stockid="TriangleOutS"
       orient="auto"
       refY="0.0"
       refX="0.0"
       id="TriangleOutS"
       style="overflow:visible">
      <path
         id="path4115"
         d="M 5.77,0.0 L -2.88,5.0 L -2.88,-5.0 L 5.77,0.0 z "
         style="fill-rule:evenodd;stroke:#000000;stroke-width:1.0pt;marker-start:none"
         transform="scale(0.2)" />
    </marker>
    <marker
       inkscape:stockid="TriangleOutL"
       orient="auto"
       refY="0.0"
       refX="0.0"
       id="TriangleOutL"
       style="overflow:visible">
      <path
         id="path4109"
         d="M 5.77,0.0 L -2.88,5.0 L -2.88,-5.0 L 5.77,0.0 z "
         style="fill-rule:evenodd;stroke:#000000;stroke-width:1.0pt;marker-start:none"
         transform="scale(0.8)" />
    </marker>
    <marker
       inkscape:stockid="Arrow1Lend"
       orient="auto"
       refY="0.0"
       refX="0.0"
       id="Arrow1Lend"
       style="overflow:visible;">
      <path
         id="path3969"
         d="M 0.0,0.0 L 5.0,-5.0 L -12.5,0.0 L 5.0,5.0 L 0.0,0.0 z "
         style="fill-rule:evenodd;stroke:#000000;stroke-width:1.0pt;marker-start:none;"
         transform="scale(0.8) rotate(180) translate(12.5,0)" />
    </marker>
    <inkscape:perspective
       sodipodi:type="inkscape:persp3d"
       inkscape:vp_x="0 : 24 : 1"
       inkscape:vp_y="0 : 1000 : 0"
       inkscape:vp_z="48 : 24 : 1"
       inkscape:persp3d-origin="24 : 16 : 1"
       id="perspective2391" />
    <inkscape:perspective
       id="perspective2589"
       inkscape:persp3d-origin="24 : 16 : 1"
       inkscape:vp_z="48 : 24 : 1"
       inkscape:vp_y="0 : 1000 : 0"
       inkscape:vp_x="0 : 24 : 1"
       sodipodi:type="inkscape:persp3d" />
  </defs>
  <sodipodi:namedview
     id="base"
     pagecolor="#ffffff"
     bordercolor="#666666"
     borderopacity="1.0"
     inkscape:pageopacity="0.0"
     inkscape:pageshadow="2"
     inkscape:zoom="7"
     inkscape:cx="17.434148"
     inkscape:cy="24"
     inkscape:current-layer="layer1"
     showgrid="true"
     inkscape:grid-bbox="true"
     inkscape:document-units="px"
     inkscape:window-width="1400"
     inkscape:window-height="973"
     inkscape:window-x="0"
     inkscape:window-y="26" />
  <metadata
     id="metadata2388">
    <rdf:RDF>
      <cc:Work
         rdf:about="">
        <dc:format>image/svg+xml</dc:format>
        <dc:type
           rdf:resource="http://purl.org/dc/dcmitype/StillImage" />
      </cc:Work>
    </rdf:RDF>
  </metadata>
  <g
     id="layer1"
     inkscape:label="Layer 1"
     inkscape:groupmode="layer">
    <g
       id="g2468"
       transform="matrix(0.4962153,0,0,0.4962153,24.810596,22.982538)">
      <path
         transform="translate(2.8203647,32.433006)"
         d="M 21.857143,10.571428 A 2,2 0 1 1 17.857143,10.571428 A 2,2 0 1 1 21.857143,10.571428 z"
         sodipodi:ry="2"
         sodipodi:rx="2"
         sodipodi:cy="10.571428"
         sodipodi:cx="19.857143"
         id="path3175"
         style="opacity:0.75;fill:#000000;fill-opacity:1;stroke-width:0.69599998;stroke-miterlimit:4;stroke-dasharray:none"
         sodipodi:type="arc" />
      <path
         transform="translate(-10.776115,32.616787)"
         d="M 21.857143,10.571428 A 2,2 0 1 1 17.857143,10.571428 A 2,2 0 1 1 21.857143,10.571428 z"
         sodipodi:ry="2"
         sodipodi:rx="2"
         sodipodi:cy="10.571428"
         sodipodi:cx="19.857143"
         id="path3177"
         style="opacity:0.75;fill:#000000;fill-opacity:1;stroke-width:0.69599998;stroke-miterlimit:4;stroke-dasharray:none"
         sodipodi:type="arc" />
      <path
         transform="translate(16.857142,-3.5714283)"
         d="M 21.857143,10.571428 A 2,2 0 1 1 17.857143,10.571428 A 2,2 0 1 1 21.857143,10.571428 z"
         sodipodi:ry="2"
         sodipodi:rx="2"
         sodipodi:cy="10.571428"
         sodipodi:cx="19.857143"
         id="path3167"
         style="opacity:0.75;fill:#000000;fill-opacity:1;stroke-width:0.69599998;stroke-miterlimit:4;stroke-dasharray:none"
         sodipodi:type="arc" />
      <path
         transform="translate(16.857142,10.914285)"
         d="M 21.857143,10.571428 A 2,2 0 1 1 17.857143,10.571428 A 2,2 0 1 1 21.857143,10.571428 z"
         sodipodi:ry="2"
         sodipodi:rx="2"
         sodipodi:cy="10.571428"
         sodipodi:cx="19.857143"
         id="path3173"
         style="opacity:0.75;fill:#000000;fill-opacity:1;stroke-width:0.69599998;stroke-miterlimit:4;stroke-dasharray:none"
         sodipodi:type="arc" />
      <path
         transform="translate(-7.5714291,10.942858)"
         d="M 21.857143,10.571428 A 2,2 0 1 1 17.857143,10.571428 A 2,2 0 1 1 21.857143,10.571428 z"
         sodipodi:ry="2"
         sodipodi:rx="2"
         sodipodi:cy="10.571428"
         sodipodi:cx="19.857143"
         id="path3213"
         style="opacity:0.75;fill:#000000;fill-opacity:1;stroke-width:0.69599998;stroke-miterlimit:4;stroke-dasharray:none"
         sodipodi:type="arc" />
      <path
         transform="translate(-7.5714291,25.428572)"
         d="M 21.857143,10.571428 A 2,2 0 1 1 17.857143,10.571428 A 2,2 0 1 1 21.857143,10.571428 z"
         sodipodi:ry="2"
         sodipodi:rx="2"
         sodipodi:cy="10.571428"
         sodipodi:cx="19.857143"
         id="path3217"
         style="opacity:0.75;fill:#000000;fill-opacity:1;stroke-width:0.69599998;stroke-miterlimit:4;stroke-dasharray:none"
         sodipodi:type="arc" />
      <path
         transform="matrix(0,-1,1,0,16.485714,55.857144)"
         d="M 21.857143,10.571428 A 2,2 0 1 1 17.857143,10.571428 A 2,2 0 1 1 21.857143,10.571428 z"
         sodipodi:ry="2"
         sodipodi:rx="2"
         sodipodi:cy="10.571428"
         sodipodi:cx="19.857143"
         id="path3221"
         style="opacity:0.75;fill:#000000;fill-opacity:1;stroke-width:0.69599998;stroke-miterlimit:4;stroke-dasharray:none"
         sodipodi:type="arc" />
      <path
         transform="matrix(0,-1,1,0,26.142857,55.857144)"
         d="M 21.857143,10.571428 A 2,2 0 1 1 17.857143,10.571428 A 2,2 0 1 1 21.857143,10.571428 z"
         sodipodi:ry="2"
         sodipodi:rx="2"
         sodipodi:cy="10.571428"
         sodipodi:cx="19.857143"
         id="path3225"
         style="opacity:0.75;fill:#000000;fill-opacity:1;stroke-width:0.69599998;stroke-miterlimit:4;stroke-dasharray:none"
         sodipodi:type="arc" />
      <path
         transform="matrix(0,-1,1,0,16.385714,26.857143)"
         d="M 21.857143,10.571428 A 2,2 0 1 1 17.857143,10.571428 A 2,2 0 1 1 21.857143,10.571428 z"
         sodipodi:ry="2"
         sodipodi:rx="2"
         sodipodi:cy="10.571428"
         sodipodi:cx="19.857143"
         id="path3268"
         style="opacity:0.75;fill:#000000;fill-opacity:1;stroke-width:0.69599998;stroke-miterlimit:4;stroke-dasharray:none"
         sodipodi:type="arc" />
      <path
         transform="matrix(0,-1,1,0,1.8999997,26.857143)"
         d="M 21.857143,10.571428 A 2,2 0 1 1 17.857143,10.571428 A 2,2 0 1 1 21.857143,10.571428 z"
         sodipodi:ry="2"
         sodipodi:rx="2"
         sodipodi:cy="10.571428"
         sodipodi:cx="19.857143"
         id="path3272"
         style="opacity:0.75;fill:#000000;fill-opacity:1;stroke-width:0.69599998;stroke-miterlimit:4;stroke-dasharray:none"
         sodipodi:type="arc" />
    </g>
    <g
       id="g2653"
       transform="matrix(0.5032353,0,0,0.5032353,14.665505,7.3395108)">
      <path
         transform="translate(-27.077291,18.338899)"
         d="M 21.857143,10.571428 A 2,2 0 1 1 17.857143,10.571428 A 2,2 0 1 1 21.857143,10.571428 z"
         sodipodi:ry="2"
         sodipodi:rx="2"
         sodipodi:cy="10.571428"
         sodipodi:cx="19.857143"
         id="path2593"
         style="opacity:0.75;fill:#000000;fill-opacity:1;stroke-width:0.69599998;stroke-miterlimit:4;stroke-dasharray:none"
         sodipodi:type="arc" />
      <path
         transform="translate(-40.673771,18.52268)"
         d="M 21.857143,10.571428 A 2,2 0 1 1 17.857143,10.571428 A 2,2 0 1 1 21.857143,10.571428 z"
         sodipodi:ry="2"
         sodipodi:rx="2"
         sodipodi:cy="10.571428"
         sodipodi:cx="19.857143"
         id="path2595"
         style="opacity:0.75;fill:#000000;fill-opacity:1;stroke-width:0.69599998;stroke-miterlimit:4;stroke-dasharray:none"
         sodipodi:type="arc" />
      <g
         transform="translate(-29.897656,-14.094107)"
         id="g3253">
        <path
           sodipodi:type="arc"
           style="opacity:0.75;fill:#000000;fill-opacity:1;stroke-width:0.69599998;stroke-miterlimit:4;stroke-dasharray:none"
           id="path2395"
           sodipodi:cx="19.857143"
           sodipodi:cy="10.571428"
           sodipodi:rx="2"
           sodipodi:ry="2"
           d="M 21.857143,10.571428 A 2,2 0 1 1 17.857143,10.571428 A 2,2 0 1 1 21.857143,10.571428 z"
           transform="translate(16.857142,15.742857)" />
        <path
           sodipodi:type="arc"
           style="opacity:0.75;fill:#000000;fill-opacity:1;stroke-width:0.69599998;stroke-miterlimit:4;stroke-dasharray:none"
           id="path2599"
           sodipodi:cx="19.857143"
           sodipodi:cy="10.571428"
           sodipodi:rx="2"
           sodipodi:ry="2"
           d="M 21.857143,10.571428 A 2,2 0 1 1 17.857143,10.571428 A 2,2 0 1 1 21.857143,10.571428 z"
           transform="translate(16.857142,-3.5714283)" />
        <path
           sodipodi:type="arc"
           style="opacity:0.75;fill:#000000;fill-opacity:1;stroke-width:0.69599998;stroke-miterlimit:4;stroke-dasharray:none"
           id="path3169"
           sodipodi:cx="19.857143"
           sodipodi:cy="10.571428"
           sodipodi:rx="2"
           sodipodi:ry="2"
           d="M 21.857143,10.571428 A 2,2 0 1 1 17.857143,10.571428 A 2,2 0 1 1 21.857143,10.571428 z"
           transform="translate(16.857142,1.2571431)" />
        <path
           sodipodi:type="arc"
           style="opacity:0.75;fill:#000000;fill-opacity:1;stroke-width:0.69599998;stroke-miterlimit:4;stroke-dasharray:none"
           id="path3171"
           sodipodi:cx="19.857143"
           sodipodi:cy="10.571428"
           sodipodi:rx="2"
           sodipodi:ry="2"
           d="M 21.857143,10.571428 A 2,2 0 1 1 17.857143,10.571428 A 2,2 0 1 1 21.857143,10.571428 z"
           transform="translate(16.857142,6.0857152)" />
        <path
           sodipodi:type="arc"
           style="opacity:0.75;fill:#000000;fill-opacity:1;stroke-width:0.69599998;stroke-miterlimit:4;stroke-dasharray:none"
           id="path2603"
           sodipodi:cx="19.857143"
           sodipodi:cy="10.571428"
           sodipodi:rx="2"
           sodipodi:ry="2"
           d="M 21.857143,10.571428 A 2,2 0 1 1 17.857143,10.571428 A 2,2 0 1 1 21.857143,10.571428 z"
           transform="translate(16.857142,10.914285)" />
        <path
           sodipodi:type="arc"
           style="opacity:0.75;fill:#000000;fill-opacity:1;stroke-width:0.69599998;stroke-miterlimit:4;stroke-dasharray:none"
           id="path3183"
           sodipodi:cx="19.857143"
           sodipodi:cy="10.571428"
           sodipodi:rx="2"
           sodipodi:ry="2"
           d="M 21.857143,10.571428 A 2,2 0 1 1 17.857143,10.571428 A 2,2 0 1 1 21.857143,10.571428 z"
           transform="translate(16.857142,20.571429)" />
      </g>
      <g
         transform="translate(-30.040513,-12.45125)"
         id="g3245">
        <path
           sodipodi:type="arc"
           style="opacity:0.75;fill:#000000;fill-opacity:1;stroke-width:0.69599998;stroke-miterlimit:4;stroke-dasharray:none"
           id="path3207"
           sodipodi:cx="19.857143"
           sodipodi:cy="10.571428"
           sodipodi:rx="2"
           sodipodi:ry="2"
           d="M 21.857143,10.571428 A 2,2 0 1 1 17.857143,10.571428 A 2,2 0 1 1 21.857143,10.571428 z"
           transform="translate(-7.428572,18.957143)" />
        <path
           sodipodi:type="arc"
           style="opacity:0.75;fill:#000000;fill-opacity:1;stroke-width:0.69599998;stroke-miterlimit:4;stroke-dasharray:none"
           id="path3209"
           sodipodi:cx="19.857143"
           sodipodi:cy="10.571428"
           sodipodi:rx="2"
           sodipodi:ry="2"
           d="M 21.857143,10.571428 A 2,2 0 1 1 17.857143,10.571428 A 2,2 0 1 1 21.857143,10.571428 z"
           transform="translate(-7.428572,-0.3571426)" />
        <path
           sodipodi:type="arc"
           style="opacity:0.75;fill:#000000;fill-opacity:1;stroke-width:0.69599998;stroke-miterlimit:4;stroke-dasharray:none"
           id="path3211"
           sodipodi:cx="19.857143"
           sodipodi:cy="10.571428"
           sodipodi:rx="2"
           sodipodi:ry="2"
           d="M 21.857143,10.571428 A 2,2 0 1 1 17.857143,10.571428 A 2,2 0 1 1 21.857143,10.571428 z"
           transform="translate(-7.428572,4.4714286)" />
        <path
           sodipodi:type="arc"
           style="opacity:0.75;fill:#000000;fill-opacity:1;stroke-width:0.69599998;stroke-miterlimit:4;stroke-dasharray:none"
           id="path2610"
           sodipodi:cx="19.857143"
           sodipodi:cy="10.571428"
           sodipodi:rx="2"
           sodipodi:ry="2"
           d="M 21.857143,10.571428 A 2,2 0 1 1 17.857143,10.571428 A 2,2 0 1 1 21.857143,10.571428 z"
           transform="translate(-7.428572,9.3000006)" />
        <path
           sodipodi:type="arc"
           style="opacity:0.75;fill:#000000;fill-opacity:1;stroke-width:0.69599998;stroke-miterlimit:4;stroke-dasharray:none"
           id="path3215"
           sodipodi:cx="19.857143"
           sodipodi:cy="10.571428"
           sodipodi:rx="2"
           sodipodi:ry="2"
           d="M 21.857143,10.571428 A 2,2 0 1 1 17.857143,10.571428 A 2,2 0 1 1 21.857143,10.571428 z"
           transform="translate(-7.428572,14.128571)" />
        <path
           sodipodi:type="arc"
           style="opacity:0.75;fill:#000000;fill-opacity:1;stroke-width:0.69599998;stroke-miterlimit:4;stroke-dasharray:none"
           id="path2613"
           sodipodi:cx="19.857143"
           sodipodi:cy="10.571428"
           sodipodi:rx="2"
           sodipodi:ry="2"
           d="M 21.857143,10.571428 A 2,2 0 1 1 17.857143,10.571428 A 2,2 0 1 1 21.857143,10.571428 z"
           transform="translate(-7.428572,23.785715)" />
      </g>
      <g
         transform="translate(-29.769085,-14.236964)"
         id="g3261">
        <path
           sodipodi:type="arc"
           style="opacity:0.75;fill:#000000;fill-opacity:1;stroke-width:0.69599998;stroke-miterlimit:4;stroke-dasharray:none"
           id="path2616"
           sodipodi:cx="19.857143"
           sodipodi:cy="10.571428"
           sodipodi:rx="2"
           sodipodi:ry="2"
           d="M 21.857143,10.571428 A 2,2 0 1 1 17.857143,10.571428 A 2,2 0 1 1 21.857143,10.571428 z"
           transform="matrix(0,-1,1,0,16.357143,56.000001)" />
        <path
           sodipodi:type="arc"
           style="opacity:0.75;fill:#000000;fill-opacity:1;stroke-width:0.69599998;stroke-miterlimit:4;stroke-dasharray:none"
           id="path3223"
           sodipodi:cx="19.857143"
           sodipodi:cy="10.571428"
           sodipodi:rx="2"
           sodipodi:ry="2"
           d="M 21.857143,10.571428 A 2,2 0 1 1 17.857143,10.571428 A 2,2 0 1 1 21.857143,10.571428 z"
           transform="matrix(0,-1,1,0,21.185714,56.000001)" />
        <path
           sodipodi:type="arc"
           style="opacity:0.75;fill:#000000;fill-opacity:1;stroke-width:0.69599998;stroke-miterlimit:4;stroke-dasharray:none"
           id="path2619"
           sodipodi:cx="19.857143"
           sodipodi:cy="10.571428"
           sodipodi:rx="2"
           sodipodi:ry="2"
           d="M 21.857143,10.571428 A 2,2 0 1 1 17.857143,10.571428 A 2,2 0 1 1 21.857143,10.571428 z"
           transform="matrix(0,-1,1,0,26.014286,56.000001)" />
      </g>
      <path
         transform="matrix(0,-1,1,0,-13.511942,12.763036)"
         d="M 21.857143,10.571428 A 2,2 0 1 1 17.857143,10.571428 A 2,2 0 1 1 21.857143,10.571428 z"
         sodipodi:ry="2"
         sodipodi:rx="2"
         sodipodi:cy="10.571428"
         sodipodi:cx="19.857143"
         id="path2621"
         style="opacity:0.75;fill:#000000;fill-opacity:1;stroke-width:0.69599998;stroke-miterlimit:4;stroke-dasharray:none"
         sodipodi:type="arc" />
      <path
         transform="matrix(0,-1,1,0,-27.997656,12.763036)"
         d="M 21.857143,10.571428 A 2,2 0 1 1 17.857143,10.571428 A 2,2 0 1 1 21.857143,10.571428 z"
         sodipodi:ry="2"
         sodipodi:rx="2"
         sodipodi:cy="10.571428"
         sodipodi:cx="19.857143"
         id="path2623"
         style="opacity:0.75;fill:#000000;fill-opacity:1;stroke-width:0.69599998;stroke-miterlimit:4;stroke-dasharray:none"
         sodipodi:type="arc" />
      <path
         transform="matrix(0,-1,1,0,-23.169084,12.763036)"
         d="M 21.857143,10.571428 A 2,2 0 1 1 17.857143,10.571428 A 2,2 0 1 1 21.857143,10.571428 z"
         sodipodi:ry="2"
         sodipodi:rx="2"
         sodipodi:cy="10.571428"
         sodipodi:cx="19.857143"
         id="path3274"
         style="opacity:0.75;fill:#000000;fill-opacity:1;stroke-width:0.69599998;stroke-miterlimit:4;stroke-dasharray:none"
         sodipodi:type="arc" />
      <path
         transform="matrix(0,-1,1,0,-18.340514,12.763036)"
         d="M 21.857143,10.571428 A 2,2 0 1 1 17.857143,10.571428 A 2,2 0 1 1 21.857143,10.571428 z"
         sodipodi:ry="2"
         sodipodi:rx="2"
         sodipodi:cy="10.571428"
         sodipodi:cx="19.857143"
         id="path3276"
         style="opacity:0.75;fill:#000000;fill-opacity:1;stroke-width:0.69599998;stroke-miterlimit:4;stroke-dasharray:none"
         sodipodi:type="arc" />
      <path
         transform="matrix(0,-1,1,0,-8.68337,12.763036)"
         d="M 21.857143,10.571428 A 2,2 0 1 1 17.857143,10.571428 A 2,2 0 1 1 21.857143,10.571428 z"
         sodipodi:ry="2"
         sodipodi:rx="2"
         sodipodi:cy="10.571428"
         sodipodi:cx="19.857143"
         id="path3278"
         style="opacity:0.75;fill:#000000;fill-opacity:1;stroke-width:0.69599998;stroke-miterlimit:4;stroke-dasharray:none"
         sodipodi:type="arc" />
    </g>
    <path
       style="fill:none;fill-rule:evenodd;stroke:#000000;stroke-width:1px;stroke-linecap:butt;stroke-linejoin:miter;stroke-opacity:1;marker-end:url(#TriangleOutM)"
       d="M 9.1428571,25.142857 C 10.45557,30.47535 13.735615,34.589971 23,35"
       id="path5266"
       sodipodi:nodetypes="cc" />
  </g>
</svg>
