<?xml version="1.0" encoding="UTF-8" standalone="no"?>
<!-- Created with Inkscape (http://www.inkscape.org/) -->

<svg
   xmlns:dc="http://purl.org/dc/elements/1.1/"
   xmlns:cc="http://creativecommons.org/ns#"
   xmlns:rdf="http://www.w3.org/1999/02/22-rdf-syntax-ns#"
   xmlns:svg="http://www.w3.org/2000/svg"
   xmlns="http://www.w3.org/2000/svg"
   xmlns:sodipodi="http://sodipodi.sourceforge.net/DTD/sodipodi-0.dtd"
   xmlns:inkscape="http://www.inkscape.org/namespaces/inkscape"
   width="48"
   height="48"
   id="svg2383"
   sodipodi:version="0.32"
   inkscape:version="0.46+devel"
   sodipodi:docname="points_32x32.svg"
   inkscape:output_extension="org.inkscape.output.svg.inkscape"
   version="1.0">
  <defs
     id="defs2385">
    <inkscape:perspective
       sodipodi:type="inkscape:persp3d"
       inkscape:vp_x="0 : 24 : 1"
       inkscape:vp_y="0 : 1000 : 0"
       inkscape:vp_z="48 : 24 : 1"
       inkscape:persp3d-origin="24 : 16 : 1"
       id="perspective2391" />
  </defs>
  <sodipodi:namedview
     id="base"
     pagecolor="#ffffff"
     bordercolor="#666666"
     borderopacity="1.0"
     inkscape:pageopacity="0.0"
     inkscape:pageshadow="2"
     inkscape:zoom="8.62"
     inkscape:cx="8.7481246"
     inkscape:cy="11.571429"
     inkscape:current-layer="g2587"
     showgrid="true"
     inkscape:grid-bbox="true"
     inkscape:document-units="px"
     inkscape:window-width="1394"
     inkscape:window-height="973"
     inkscape:window-x="0"
     inkscape:window-y="26" />
  <metadata
     id="metadata2388">
    <rdf:RDF>
      <cc:Work
         rdf:about="">
        <dc:format>image/svg+xml</dc:format>
        <dc:type
           rdf:resource="http://purl.org/dc/dcmitype/StillImage" />
        <dc:title></dc:title>
      </cc:Work>
    </rdf:RDF>
  </metadata>
  <g
     id="layer1"
     inkscape:label="Layer 1"
     inkscape:groupmode="layer">
    <g
       id="g2587"
       transform="matrix(0.6721622,0,0,0.6721622,-0.6785712,1.5286911)">
      <path
         transform="matrix(1.3488297,0,0,1.3488297,9.6343547,43.330303)"
         d="m 21.857143,10.571428 a 2,2 0 1 1 -4,0 2,2 0 1 1 4,0 z"
         sodipodi:ry="2"
         sodipodi:rx="2"
         sodipodi:cy="10.571428"
         sodipodi:cx="19.857143"
         id="path3175"
         style="opacity:1;fill:#ffffff;fill-opacity:1;stroke-width:0.69599997999999996;stroke-miterlimit:4;stroke-dasharray:none"
         sodipodi:type="arc" />
      <path
         transform="matrix(1.3488297,0,0,1.3488297,-8.7049816,43.578192)"
         d="m 21.857143,10.571428 a 2,2 0 1 1 -4,0 2,2 0 1 1 4,0 z"
         sodipodi:ry="2"
         sodipodi:rx="2"
         sodipodi:cy="10.571428"
         sodipodi:cx="19.857143"
         id="path3177"
         style="opacity:1;fill:#ffffff;fill-opacity:1;stroke-width:0.69599997999999996;stroke-miterlimit:4;stroke-dasharray:none"
         sodipodi:type="arc" />
      <path
         transform="matrix(1.3488297,0,0,1.3488297,28.567577,20.818134)"
         d="m 21.857143,10.571428 a 2,2 0 1 1 -4,0 2,2 0 1 1 4,0 z"
         sodipodi:ry="2"
         sodipodi:rx="2"
         sodipodi:cy="10.571428"
         sodipodi:cx="19.857143"
         id="path2395"
         style="opacity:1;fill:#ffffff;fill-opacity:1;stroke-width:0.69599997999999996;stroke-miterlimit:4;stroke-dasharray:none"
         sodipodi:type="arc" />
      <path
         transform="matrix(1.3488297,0,0,1.3488297,28.567577,-5.2335479)"
         d="m 21.857143,10.571428 a 2,2 0 1 1 -4,0 2,2 0 1 1 4,0 z"
         sodipodi:ry="2"
         sodipodi:rx="2"
         sodipodi:cy="10.571428"
         sodipodi:cx="19.857143"
         id="path3167"
         style="opacity:1;fill:#ffffff;fill-opacity:1;stroke-width:0.69599997999999996;stroke-miterlimit:4;stroke-dasharray:none"
         sodipodi:type="arc" />
      <path
         transform="matrix(1.3488297,0,0,1.3488297,28.567577,1.2793726)"
         d="m 21.857143,10.571428 a 2,2 0 1 1 -4,0 2,2 0 1 1 4,0 z"
         sodipodi:ry="2"
         sodipodi:rx="2"
         sodipodi:cy="10.571428"
         sodipodi:cx="19.857143"
         id="path3169"
         style="opacity:1;fill:#ffffff;fill-opacity:1;stroke-width:0.69599997999999996;stroke-miterlimit:4;stroke-dasharray:none"
         sodipodi:type="arc" />
      <path
         transform="matrix(1.3488297,0,0,1.3488297,28.567577,7.792294)"
         d="m 21.857143,10.571428 a 2,2 0 1 1 -4,0 2,2 0 1 1 4,0 z"
         sodipodi:ry="2"
         sodipodi:rx="2"
         sodipodi:cy="10.571428"
         sodipodi:cx="19.857143"
         id="path3171"
         style="opacity:1;fill:#ffffff;fill-opacity:1;stroke-width:0.69599997999999996;stroke-miterlimit:4;stroke-dasharray:none"
         sodipodi:type="arc" />
      <path
         transform="matrix(1.3488297,0,0,1.3488297,28.567577,14.305212)"
         d="m 21.857143,10.571428 a 2,2 0 1 1 -4,0 2,2 0 1 1 4,0 z"
         sodipodi:ry="2"
         sodipodi:rx="2"
         sodipodi:cy="10.571428"
         sodipodi:cx="19.857143"
         id="path3173"
         style="opacity:1;fill:#ffffff;fill-opacity:1;stroke-width:0.69599997999999996;stroke-miterlimit:4;stroke-dasharray:none"
         sodipodi:type="arc" />
      <path
         transform="matrix(1.3488297,0,0,1.3488297,28.567577,27.331055)"
         d="m 21.857143,10.571428 a 2,2 0 1 1 -4,0 2,2 0 1 1 4,0 z"
         sodipodi:ry="2"
         sodipodi:rx="2"
         sodipodi:cy="10.571428"
         sodipodi:cx="19.857143"
         id="path3183"
         style="opacity:1;fill:#ffffff;fill-opacity:1;stroke-width:0.69599997999999996;stroke-miterlimit:4;stroke-dasharray:none"
         sodipodi:type="arc" />
      <path
         transform="matrix(1.3488297,0,0,1.3488297,-4.3824053,27.369593)"
         d="m 21.857143,10.571428 a 2,2 0 1 1 -4,0 2,2 0 1 1 4,0 z"
         sodipodi:ry="2"
         sodipodi:rx="2"
         sodipodi:cy="10.571428"
         sodipodi:cx="19.857143"
         id="path3207"
         style="opacity:1;fill:#ffffff;fill-opacity:1;stroke-width:0.69599997999999996;stroke-miterlimit:4;stroke-dasharray:none"
         sodipodi:type="arc" />
      <path
         transform="matrix(1.3488297,0,0,1.3488297,-4.3824053,1.3179107)"
         d="m 21.857143,10.571428 a 2,2 0 1 1 -4,0 2,2 0 1 1 4,0 z"
         sodipodi:ry="2"
         sodipodi:rx="2"
         sodipodi:cy="10.571428"
         sodipodi:cx="19.857143"
         id="path3209"
         style="opacity:1;fill:#ffffff;fill-opacity:1;stroke-width:0.69599997999999996;stroke-miterlimit:4;stroke-dasharray:none"
         sodipodi:type="arc" />
      <path
         transform="matrix(1.3488297,0,0,1.3488297,-4.3824053,7.8308309)"
         d="m 21.857143,10.571428 a 2,2 0 1 1 -4,0 2,2 0 1 1 4,0 z"
         sodipodi:ry="2"
         sodipodi:rx="2"
         sodipodi:cy="10.571428"
         sodipodi:cx="19.857143"
         id="path3211"
         style="opacity:1;fill:#ffffff;fill-opacity:1;stroke-width:0.69599997999999996;stroke-miterlimit:4;stroke-dasharray:none"
         sodipodi:type="arc" />
      <path
         transform="matrix(1.3488297,0,0,1.3488297,-4.3824053,14.343752)"
         d="m 21.857143,10.571428 a 2,2 0 1 1 -4,0 2,2 0 1 1 4,0 z"
         sodipodi:ry="2"
         sodipodi:rx="2"
         sodipodi:cy="10.571428"
         sodipodi:cx="19.857143"
         id="path3213"
         style="opacity:1;fill:#ffffff;fill-opacity:1;stroke-width:0.69599997999999996;stroke-miterlimit:4;stroke-dasharray:none"
         sodipodi:type="arc" />
      <path
         transform="matrix(1.3488297,0,0,1.3488297,-4.3824053,20.856671)"
         d="m 21.857143,10.571428 a 2,2 0 1 1 -4,0 2,2 0 1 1 4,0 z"
         sodipodi:ry="2"
         sodipodi:rx="2"
         sodipodi:cy="10.571428"
         sodipodi:cx="19.857143"
         id="path3215"
         style="opacity:1;fill:#ffffff;fill-opacity:1;stroke-width:0.69599997999999996;stroke-miterlimit:4;stroke-dasharray:none"
         sodipodi:type="arc" />
      <path
         transform="matrix(1.3488297,0,0,1.3488297,-4.3824053,33.882514)"
         d="m 21.857143,10.571428 a 2,2 0 1 1 -4,0 2,2 0 1 1 4,0 z"
         sodipodi:ry="2"
         sodipodi:rx="2"
         sodipodi:cy="10.571428"
         sodipodi:cx="19.857143"
         id="path3217"
         style="opacity:1;fill:#ffffff;fill-opacity:1;stroke-width:0.69599997999999996;stroke-miterlimit:4;stroke-dasharray:none"
         sodipodi:type="arc" />
      <path
         transform="matrix(0,-1.3488297,1.3488297,0,28.066584,74.925475)"
         d="m 21.857143,10.571428 a 2,2 0 1 1 -4,0 2,2 0 1 1 4,0 z"
         sodipodi:ry="2"
         sodipodi:rx="2"
         sodipodi:cy="10.571428"
         sodipodi:cx="19.857143"
         id="path3221"
         style="opacity:1;fill:#ffffff;fill-opacity:1;stroke-width:0.69599997999999996;stroke-miterlimit:4;stroke-dasharray:none"
         sodipodi:type="arc" />
      <path
         transform="matrix(0,-1.3488297,1.3488297,0,34.579504,74.925475)"
         d="m 21.857143,10.571428 a 2,2 0 1 1 -4,0 2,2 0 1 1 4,0 z"
         sodipodi:ry="2"
         sodipodi:rx="2"
         sodipodi:cy="10.571428"
         sodipodi:cx="19.857143"
         id="path3223"
         style="opacity:1;fill:#ffffff;fill-opacity:1;stroke-width:0.69599997999999996;stroke-miterlimit:4;stroke-dasharray:none"
         sodipodi:type="arc" />
      <path
         transform="matrix(0,-1.3488297,1.3488297,0,41.092425,74.925475)"
         d="m 21.857143,10.571428 a 2,2 0 1 1 -4,0 2,2 0 1 1 4,0 z"
         sodipodi:ry="2"
         sodipodi:rx="2"
         sodipodi:cy="10.571428"
         sodipodi:cx="19.857143"
         id="path3225"
         style="opacity:1;fill:#ffffff;fill-opacity:1;stroke-width:0.69599997999999996;stroke-miterlimit:4;stroke-dasharray:none"
         sodipodi:type="arc" />
      <path
         transform="matrix(0,-1.3488297,1.3488297,0,27.9317,35.809413)"
         d="m 21.857143,10.571428 a 2,2 0 1 1 -4,0 2,2 0 1 1 4,0 z"
         sodipodi:ry="2"
         sodipodi:rx="2"
         sodipodi:cy="10.571428"
         sodipodi:cx="19.857143"
         id="path3268"
         style="opacity:1;fill:#ffffff;fill-opacity:1;stroke-width:0.69599997999999996;stroke-miterlimit:4;stroke-dasharray:none"
         sodipodi:type="arc" />
      <path
         transform="matrix(0,-1.3488297,1.3488297,0,8.3929391,35.809413)"
         d="m 21.857143,10.571428 a 2,2 0 1 1 -4,0 2,2 0 1 1 4,0 z"
         sodipodi:ry="2"
         sodipodi:rx="2"
         sodipodi:cy="10.571428"
         sodipodi:cx="19.857143"
         id="path3272"
         style="opacity:1;fill:#ffffff;fill-opacity:1;stroke-width:0.69599997999999996;stroke-miterlimit:4;stroke-dasharray:none"
         sodipodi:type="arc" />
      <path
         transform="matrix(0,-1.3488297,1.3488297,0,14.90586,35.809413)"
         d="m 21.857143,10.571428 a 2,2 0 1 1 -4,0 2,2 0 1 1 4,0 z"
         sodipodi:ry="2"
         sodipodi:rx="2"
         sodipodi:cy="10.571428"
         sodipodi:cx="19.857143"
         id="path3274"
         style="opacity:1;fill:#ffffff;fill-opacity:1;stroke-width:0.69599997999999996;stroke-miterlimit:4;stroke-dasharray:none"
         sodipodi:type="arc" />
      <path
         transform="matrix(0,-1.3488297,1.3488297,0,21.418779,35.809413)"
         d="m 21.857143,10.571428 a 2,2 0 1 1 -4,0 2,2 0 1 1 4,0 z"
         sodipodi:ry="2"
         sodipodi:rx="2"
         sodipodi:cy="10.571428"
         sodipodi:cx="19.857143"
         id="path3276"
         style="opacity:1;fill:#ffffff;fill-opacity:1;stroke-width:0.69599997999999996;stroke-miterlimit:4;stroke-dasharray:none"
         sodipodi:type="arc" />
      <path
         transform="matrix(0,-1.3488297,1.3488297,0,34.444621,35.809413)"
         d="m 21.857143,10.571428 a 2,2 0 1 1 -4,0 2,2 0 1 1 4,0 z"
         sodipodi:ry="2"
         sodipodi:rx="2"
         sodipodi:cy="10.571428"
         sodipodi:cx="19.857143"
         id="path3278"
         style="opacity:1;fill:#ffffff;fill-opacity:1;stroke-width:0.69599997999999996;stroke-miterlimit:4;stroke-dasharray:none"
         sodipodi:type="arc" />
    </g>
  </g>
</svg>
