<?xml version="1.0" encoding="UTF-8" standalone="no"?>
<!-- Created with Inkscape (http://www.inkscape.org/) -->
<svg
   xmlns:dc="http://purl.org/dc/elements/1.1/"
   xmlns:cc="http://creativecommons.org/ns#"
   xmlns:rdf="http://www.w3.org/1999/02/22-rdf-syntax-ns#"
   xmlns:svg="http://www.w3.org/2000/svg"
   xmlns="http://www.w3.org/2000/svg"
   xmlns:sodipodi="http://sodipodi.sourceforge.net/DTD/sodipodi-0.dtd"
   xmlns:inkscape="http://www.inkscape.org/namespaces/inkscape"
   width="32"
   height="32"
   id="svg2383"
   sodipodi:version="0.32"
   inkscape:version="0.46"
   sodipodi:docname="points_32x32.svg"
   inkscape:output_extension="org.inkscape.output.svg.inkscape"
   version="1.0">
  <defs
     id="defs2385">
    <inkscape:perspective
       sodipodi:type="inkscape:persp3d"
       inkscape:vp_x="0 : 24 : 1"
       inkscape:vp_y="0 : 1000 : 0"
       inkscape:vp_z="48 : 24 : 1"
       inkscape:persp3d-origin="24 : 16 : 1"
       id="perspective2391" />
  </defs>
  <sodipodi:namedview
     id="base"
     pagecolor="#ffffff"
     bordercolor="#666666"
     borderopacity="1.0"
     inkscape:pageopacity="0.0"
     inkscape:pageshadow="2"
     inkscape:zoom="7"
     inkscape:cx="3.0714287"
     inkscape:cy="24"
     inkscape:current-layer="g2587"
     showgrid="true"
     inkscape:grid-bbox="true"
     inkscape:document-units="px"
     inkscape:window-width="1400"
     inkscape:window-height="973"
     inkscape:window-x="0"
     inkscape:window-y="26" />
  <metadata
     id="metadata2388">
    <rdf:RDF>
      <cc:Work
         rdf:about="">
        <dc:format>image/svg+xml</dc:format>
        <dc:type
           rdf:resource="http://purl.org/dc/dcmitype/StillImage" />
      </cc:Work>
    </rdf:RDF>
  </metadata>
  <g
     id="layer1"
     inkscape:label="Layer 1"
     inkscape:groupmode="layer">
    <g
       id="g2587"
       transform="matrix(0.6721622,0,0,0.6721622,-0.6785712,1.5286911)">
      <g
         id="g2634"
         transform="matrix(0.8992198,0,0,0.8992198,3.8410579,0.8755161)">
        <path
           sodipodi:type="arc"
           style="opacity:0.75;fill:#000000;fill-opacity:1;stroke-width:0.69599998;stroke-miterlimit:4;stroke-dasharray:none"
           id="path3175"
           sodipodi:cx="19.857143"
           sodipodi:cy="10.571428"
           sodipodi:rx="2"
           sodipodi:ry="2"
           d="M 21.857143,10.571428 A 2,2 0 1 1 17.857143,10.571428 A 2,2 0 1 1 21.857143,10.571428 z"
           transform="translate(3.2454322,30.307669)" />
        <path
           sodipodi:type="arc"
           style="opacity:0.75;fill:#000000;fill-opacity:1;stroke-width:0.69599998;stroke-miterlimit:4;stroke-dasharray:none"
           id="path3177"
           sodipodi:cx="19.857143"
           sodipodi:cy="10.571428"
           sodipodi:rx="2"
           sodipodi:ry="2"
           d="M 21.857143,10.571428 A 2,2 0 1 1 17.857143,10.571428 A 2,2 0 1 1 21.857143,10.571428 z"
           transform="translate(-10.351048,30.49145)" />
        <g
           transform="translate(0.4250675,-2.1253373)"
           id="g3253">
          <path
             transform="translate(16.857142,15.742857)"
             d="M 21.857143,10.571428 A 2,2 0 1 1 17.857143,10.571428 A 2,2 0 1 1 21.857143,10.571428 z"
             sodipodi:ry="2"
             sodipodi:rx="2"
             sodipodi:cy="10.571428"
             sodipodi:cx="19.857143"
             id="path2395"
             style="opacity:0.75;fill:#000000;fill-opacity:1;stroke-width:0.69599998;stroke-miterlimit:4;stroke-dasharray:none"
             sodipodi:type="arc" />
          <path
             transform="translate(16.857142,-3.5714283)"
             d="M 21.857143,10.571428 A 2,2 0 1 1 17.857143,10.571428 A 2,2 0 1 1 21.857143,10.571428 z"
             sodipodi:ry="2"
             sodipodi:rx="2"
             sodipodi:cy="10.571428"
             sodipodi:cx="19.857143"
             id="path3167"
             style="opacity:0.75;fill:#000000;fill-opacity:1;stroke-width:0.69599998;stroke-miterlimit:4;stroke-dasharray:none"
             sodipodi:type="arc" />
          <path
             transform="translate(16.857142,1.2571431)"
             d="M 21.857143,10.571428 A 2,2 0 1 1 17.857143,10.571428 A 2,2 0 1 1 21.857143,10.571428 z"
             sodipodi:ry="2"
             sodipodi:rx="2"
             sodipodi:cy="10.571428"
             sodipodi:cx="19.857143"
             id="path3169"
             style="opacity:0.75;fill:#000000;fill-opacity:1;stroke-width:0.69599998;stroke-miterlimit:4;stroke-dasharray:none"
             sodipodi:type="arc" />
          <path
             transform="translate(16.857142,6.0857152)"
             d="M 21.857143,10.571428 A 2,2 0 1 1 17.857143,10.571428 A 2,2 0 1 1 21.857143,10.571428 z"
             sodipodi:ry="2"
             sodipodi:rx="2"
             sodipodi:cy="10.571428"
             sodipodi:cx="19.857143"
             id="path3171"
             style="opacity:0.75;fill:#000000;fill-opacity:1;stroke-width:0.69599998;stroke-miterlimit:4;stroke-dasharray:none"
             sodipodi:type="arc" />
          <path
             transform="translate(16.857142,10.914285)"
             d="M 21.857143,10.571428 A 2,2 0 1 1 17.857143,10.571428 A 2,2 0 1 1 21.857143,10.571428 z"
             sodipodi:ry="2"
             sodipodi:rx="2"
             sodipodi:cy="10.571428"
             sodipodi:cx="19.857143"
             id="path3173"
             style="opacity:0.75;fill:#000000;fill-opacity:1;stroke-width:0.69599998;stroke-miterlimit:4;stroke-dasharray:none"
             sodipodi:type="arc" />
          <path
             transform="translate(16.857142,20.571429)"
             d="M 21.857143,10.571428 A 2,2 0 1 1 17.857143,10.571428 A 2,2 0 1 1 21.857143,10.571428 z"
             sodipodi:ry="2"
             sodipodi:rx="2"
             sodipodi:cy="10.571428"
             sodipodi:cx="19.857143"
             id="path3183"
             style="opacity:0.75;fill:#000000;fill-opacity:1;stroke-width:0.69599998;stroke-miterlimit:4;stroke-dasharray:none"
             sodipodi:type="arc" />
        </g>
        <g
           id="g3245"
           transform="translate(0.2822104,-0.4824801)">
          <path
             transform="translate(-7.428572,18.957143)"
             d="M 21.857143,10.571428 A 2,2 0 1 1 17.857143,10.571428 A 2,2 0 1 1 21.857143,10.571428 z"
             sodipodi:ry="2"
             sodipodi:rx="2"
             sodipodi:cy="10.571428"
             sodipodi:cx="19.857143"
             id="path3207"
             style="opacity:0.75;fill:#000000;fill-opacity:1;stroke-width:0.69599998;stroke-miterlimit:4;stroke-dasharray:none"
             sodipodi:type="arc" />
          <path
             transform="translate(-7.428572,-0.3571426)"
             d="M 21.857143,10.571428 A 2,2 0 1 1 17.857143,10.571428 A 2,2 0 1 1 21.857143,10.571428 z"
             sodipodi:ry="2"
             sodipodi:rx="2"
             sodipodi:cy="10.571428"
             sodipodi:cx="19.857143"
             id="path3209"
             style="opacity:0.75;fill:#000000;fill-opacity:1;stroke-width:0.69599998;stroke-miterlimit:4;stroke-dasharray:none"
             sodipodi:type="arc" />
          <path
             transform="translate(-7.428572,4.4714286)"
             d="M 21.857143,10.571428 A 2,2 0 1 1 17.857143,10.571428 A 2,2 0 1 1 21.857143,10.571428 z"
             sodipodi:ry="2"
             sodipodi:rx="2"
             sodipodi:cy="10.571428"
             sodipodi:cx="19.857143"
             id="path3211"
             style="opacity:0.75;fill:#000000;fill-opacity:1;stroke-width:0.69599998;stroke-miterlimit:4;stroke-dasharray:none"
             sodipodi:type="arc" />
          <path
             transform="translate(-7.428572,9.3000006)"
             d="M 21.857143,10.571428 A 2,2 0 1 1 17.857143,10.571428 A 2,2 0 1 1 21.857143,10.571428 z"
             sodipodi:ry="2"
             sodipodi:rx="2"
             sodipodi:cy="10.571428"
             sodipodi:cx="19.857143"
             id="path3213"
             style="opacity:0.75;fill:#000000;fill-opacity:1;stroke-width:0.69599998;stroke-miterlimit:4;stroke-dasharray:none"
             sodipodi:type="arc" />
          <path
             transform="translate(-7.428572,14.128571)"
             d="M 21.857143,10.571428 A 2,2 0 1 1 17.857143,10.571428 A 2,2 0 1 1 21.857143,10.571428 z"
             sodipodi:ry="2"
             sodipodi:rx="2"
             sodipodi:cy="10.571428"
             sodipodi:cx="19.857143"
             id="path3215"
             style="opacity:0.75;fill:#000000;fill-opacity:1;stroke-width:0.69599998;stroke-miterlimit:4;stroke-dasharray:none"
             sodipodi:type="arc" />
          <path
             transform="translate(-7.428572,23.785715)"
             d="M 21.857143,10.571428 A 2,2 0 1 1 17.857143,10.571428 A 2,2 0 1 1 21.857143,10.571428 z"
             sodipodi:ry="2"
             sodipodi:rx="2"
             sodipodi:cy="10.571428"
             sodipodi:cx="19.857143"
             id="path3217"
             style="opacity:0.75;fill:#000000;fill-opacity:1;stroke-width:0.69599998;stroke-miterlimit:4;stroke-dasharray:none"
             sodipodi:type="arc" />
        </g>
        <g
           id="g3261"
           transform="translate(0.5536386,-2.2681944)">
          <path
             transform="matrix(0,-1,1,0,16.357143,56.000001)"
             d="M 21.857143,10.571428 A 2,2 0 1 1 17.857143,10.571428 A 2,2 0 1 1 21.857143,10.571428 z"
             sodipodi:ry="2"
             sodipodi:rx="2"
             sodipodi:cy="10.571428"
             sodipodi:cx="19.857143"
             id="path3221"
             style="opacity:0.75;fill:#000000;fill-opacity:1;stroke-width:0.69599998;stroke-miterlimit:4;stroke-dasharray:none"
             sodipodi:type="arc" />
          <path
             transform="matrix(0,-1,1,0,21.185714,56.000001)"
             d="M 21.857143,10.571428 A 2,2 0 1 1 17.857143,10.571428 A 2,2 0 1 1 21.857143,10.571428 z"
             sodipodi:ry="2"
             sodipodi:rx="2"
             sodipodi:cy="10.571428"
             sodipodi:cx="19.857143"
             id="path3223"
             style="opacity:0.75;fill:#000000;fill-opacity:1;stroke-width:0.69599998;stroke-miterlimit:4;stroke-dasharray:none"
             sodipodi:type="arc" />
          <path
             transform="matrix(0,-1,1,0,26.014286,56.000001)"
             d="M 21.857143,10.571428 A 2,2 0 1 1 17.857143,10.571428 A 2,2 0 1 1 21.857143,10.571428 z"
             sodipodi:ry="2"
             sodipodi:rx="2"
             sodipodi:cy="10.571428"
             sodipodi:cx="19.857143"
             id="path3225"
             style="opacity:0.75;fill:#000000;fill-opacity:1;stroke-width:0.69599998;stroke-miterlimit:4;stroke-dasharray:none"
             sodipodi:type="arc" />
        </g>
        <path
           sodipodi:type="arc"
           style="opacity:0.75;fill:#000000;fill-opacity:1;stroke-width:0.69599998;stroke-miterlimit:4;stroke-dasharray:none"
           id="path3268"
           sodipodi:cx="19.857143"
           sodipodi:cy="10.571428"
           sodipodi:rx="2"
           sodipodi:ry="2"
           d="M 21.857143,10.571428 A 2,2 0 1 1 17.857143,10.571428 A 2,2 0 1 1 21.857143,10.571428 z"
           transform="matrix(0,-1,1,0,16.810781,24.731806)" />
        <path
           sodipodi:type="arc"
           style="opacity:0.75;fill:#000000;fill-opacity:1;stroke-width:0.69599998;stroke-miterlimit:4;stroke-dasharray:none"
           id="path3272"
           sodipodi:cx="19.857143"
           sodipodi:cy="10.571428"
           sodipodi:rx="2"
           sodipodi:ry="2"
           d="M 21.857143,10.571428 A 2,2 0 1 1 17.857143,10.571428 A 2,2 0 1 1 21.857143,10.571428 z"
           transform="matrix(0,-1,1,0,2.3250672,24.731806)" />
        <path
           sodipodi:type="arc"
           style="opacity:0.75;fill:#000000;fill-opacity:1;stroke-width:0.69599998;stroke-miterlimit:4;stroke-dasharray:none"
           id="path3274"
           sodipodi:cx="19.857143"
           sodipodi:cy="10.571428"
           sodipodi:rx="2"
           sodipodi:ry="2"
           d="M 21.857143,10.571428 A 2,2 0 1 1 17.857143,10.571428 A 2,2 0 1 1 21.857143,10.571428 z"
           transform="matrix(0,-1,1,0,7.1536392,24.731806)" />
        <path
           sodipodi:type="arc"
           style="opacity:0.75;fill:#000000;fill-opacity:1;stroke-width:0.69599998;stroke-miterlimit:4;stroke-dasharray:none"
           id="path3276"
           sodipodi:cx="19.857143"
           sodipodi:cy="10.571428"
           sodipodi:rx="2"
           sodipodi:ry="2"
           d="M 21.857143,10.571428 A 2,2 0 1 1 17.857143,10.571428 A 2,2 0 1 1 21.857143,10.571428 z"
           transform="matrix(0,-1,1,0,11.982209,24.731806)" />
        <path
           sodipodi:type="arc"
           style="opacity:0.75;fill:#000000;fill-opacity:1;stroke-width:0.69599998;stroke-miterlimit:4;stroke-dasharray:none"
           id="path3278"
           sodipodi:cx="19.857143"
           sodipodi:cy="10.571428"
           sodipodi:rx="2"
           sodipodi:ry="2"
           d="M 21.857143,10.571428 A 2,2 0 1 1 17.857143,10.571428 A 2,2 0 1 1 21.857143,10.571428 z"
           transform="matrix(0,-1,1,0,21.639353,24.731806)" />
      </g>
    </g>
  </g>
</svg>
